HIERARCHY
ROOT Hips
{
	OFFSET 0.000000 0.000000 0.000000 
	CHANNELS 6 Xposition Yposition Zposition Zrotation Yrotation Xrotation
	JOINT LeftUpLeg
	{
		OFFSET 1.363060 -1.794630 0.839290 
		CHANNELS 3 Zrotation Yrotation Xrotation
		JOINT LeftLeg
		{
			OFFSET 2.448110 -6.726130 0.000000 
			CHANNELS 3 Zrotation Yrotation Xrotation
			JOINT LeftFoot
			{
				OFFSET 2.562200 -7.039590 0.000000 
				CHANNELS 3 Zrotation Yrotation Xrotation
				JOINT LeftToeBase
				{
					OFFSET 0.157640 -0.433110 2.322550 
					CHANNELS 3 Zrotation Yrotation Xrotation
					End Site
					{
						OFFSET 0.000000 0.000000 0.000000 
					}
				}
			}
		}
	}
	JOINT RightUpLeg
	{
		OFFSET -1.305520 -1.794630 0.839290 
		CHANNELS 3 Zrotation Yrotation Xrotation
		JOINT RightLeg
		{
			OFFSET -2.542530 -6.985550 0.000000 
			CHANNELS 3 Zrotation Yrotation Xrotation
			JOINT RightFoot
			{
				OFFSET -2.568260 -7.056230 0.000000 
				CHANNELS 3 Zrotation Yrotation Xrotation
				JOINT RightToeBase
				{
					OFFSET -0.164730 -0.452590 2.363150 
					CHANNELS 3 Zrotation Yrotation Xrotation
					End Site
					{
						OFFSET 0.000000 0.000000 0.000000 
					}
				}
			}
		}
	}
	JOINT Spine
	{
		OFFSET 0.028270 2.035590 -0.193380 
		CHANNELS 3 Zrotation Yrotation Xrotation
		JOINT Spine1
		{
			OFFSET 0.056720 2.048850 -0.042750 
			CHANNELS 3 Zrotation Yrotation Xrotation
			JOINT Neck1
			{
				OFFSET -0.054170 1.746240 0.172020 
				CHANNELS 3 Zrotation Yrotation Xrotation
				JOINT Head
				{
					OFFSET 0.104070 1.761360 -0.123970 
					CHANNELS 3 Zrotation Yrotation Xrotation
					End Site
					{
						OFFSET 0.000000 0.000000 0.000000 
					}
				}
			}
			JOINT LeftArm
			{
				OFFSET 3.362410 1.200890 -0.311210 
				CHANNELS 3 Zrotation Yrotation Xrotation
				JOINT LeftForeArm
				{
					OFFSET 4.983000 -0.000000 -0.000000 
					CHANNELS 3 Zrotation Yrotation Xrotation
					JOINT LeftHand
					{
						OFFSET 3.483560 -0.000000 -0.000000 
						CHANNELS 3 Zrotation Yrotation Xrotation
						JOINT LeftHandIndex1
						{
							OFFSET 0.715260 -0.000000 -0.000000 
							CHANNELS 3 Zrotation Yrotation Xrotation
							End Site
							{
								OFFSET 0.000000 0.000000 0.000000 
							}
						}
					}
				}
			}
			JOINT RightArm
			{
				OFFSET -3.136600 1.374050 -0.404650 
				CHANNELS 3 Zrotation Yrotation Xrotation
				JOINT RightForeArm
				{
					OFFSET -5.241900 -0.000000 -0.000000 
					CHANNELS 3 Zrotation Yrotation Xrotation
					JOINT RightHand
					{
						OFFSET -3.444170 -0.000000 -0.000000 
						CHANNELS 3 Zrotation Yrotation Xrotation
						JOINT RightHandIndex1
						{
							OFFSET -0.622530 -0.000000 -0.000000 
							CHANNELS 3 Zrotation Yrotation Xrotation
							End Site
							{
								OFFSET 0.000000 0.000000 0.000000 
							}
						}
					}
				}
			}
		}
	}
}
MOTION
Frames: 10
Frame Time: 0.041667
16.801607 17.007117 -21.671408 -0.942722 -10.175404 11.300248 2.443034 -4.045066 -25.638603 4.543480 14.618973 42.024406 3.407660 -3.294220 -2.476367 4.740100 -13.085000 -39.687300 -5.490810 14.202283 -28.462970 -7.197138 -17.164116 50.532850 -0.224594 -2.877276 3.386644 -1.428200 7.556700 -21.375600 1.042116 -0.077859 -2.273825 -3.835361 0.092483 -1.162413 5.872702 6.245916 14.492924 -7.833800 5.054800 3.893800 -68.245937 3.095551 21.065907 147.752392 -39.960409 -111.544344 0.986312 -1.111579 -37.371576 -7.125000 0.000000 0.000000 72.430101 6.216252 51.684996 -146.719259 36.820656 -109.258608 -3.133161 2.585744 3.091646 7.125000 0.000000 0.000000 
16.767996 17.111045 -21.641745 -0.917420 -10.009074 11.061435 2.513671 -3.988727 -24.718803 3.996742 14.070975 40.253413 3.274976 -2.870034 -0.989777 4.714600 -13.055000 -39.574700 -4.933691 13.352834 -28.262038 -7.058427 -17.052905 50.125671 -0.017102 -3.434248 3.741905 -1.498400 7.732000 -21.903100 1.023281 -0.039436 -2.319405 -3.942672 0.112966 -1.637131 5.841417 6.266405 14.358920 -7.949700 5.065400 3.659400 -68.143515 3.609051 20.873743 147.958527 -39.776282 -111.632046 0.979895 -1.113296 -37.710091 -7.125000 0.000000 0.000000 72.536258 5.714126 51.787154 -146.731229 36.808880 -109.271099 -3.152404 2.627203 3.220728 7.125000 0.000000 0.000000 
16.727022 17.193313 -21.614109 -0.956094 -9.896427 10.846176 2.676887 -3.847776 -23.834560 3.480750 13.515994 38.492718 3.166057 -2.468282 0.506533 4.693900 -13.030500 -39.482800 -4.296288 12.550208 -28.137718 -6.895330 -16.943882 49.688153 0.102567 -3.761900 3.876736 -1.441400 7.590200 -21.476200 1.012844 -0.045069 -2.329186 -3.975124 0.108065 -1.811361 5.823688 6.513000 14.192897 -7.981100 5.148100 3.467100 -68.051886 3.730393 20.552729 148.089585 -39.649394 -111.708364 0.972504 -1.114918 -38.131308 -7.125000 0.000000 0.000000 72.545056 5.551602 51.909419 -146.635929 36.901506 -109.219626 -3.152844 2.642937 3.312090 7.125000 0.000000 0.000000 
16.678152 17.305991 -21.584232 -1.055630 -9.822033 10.919804 2.913861 -3.696266 -23.059934 2.929106 12.894203 36.526475 3.014152 -1.926480 2.179418 4.680800 -13.015100 -39.424900 -3.554951 11.692301 -28.193087 -6.655837 -16.797537 49.065352 0.094128 -3.766379 3.710571 -1.390300 7.460100 -21.085800 1.024932 -0.074764 -2.347710 -3.811112 0.082837 -1.744186 5.837346 6.760243 14.187698 -7.927300 5.254500 3.510500 -68.044872 3.755353 20.060643 148.232014 -39.515522 -111.773996 0.971015 -1.128621 -38.864994 -7.125000 0.000000 0.000000 72.434638 5.627896 52.063339 -146.571629 36.971119 -109.176036 -3.127919 2.630711 3.328907 7.125000 0.000000 0.000000 
16.625014 17.428592 -21.549660 -1.082301 -9.765247 10.980580 3.105637 -3.662649 -22.215208 2.369105 12.229658 34.490002 2.813546 -1.265518 4.015655 4.660500 -12.991000 -39.334800 -2.881328 10.795106 -28.196666 -6.358003 -16.607494 48.296175 -0.220137 -3.003342 3.621698 -1.371700 7.412100 -20.942300 1.022591 -0.063703 -2.371295 -3.726490 0.079419 -1.685048 5.890440 6.877072 14.245696 -7.858100 5.318000 3.591800 -68.024876 3.903955 19.710341 148.427288 -39.363016 -111.827872 0.971677 -1.139813 -39.758561 -7.125000 0.000000 0.000000 72.492004 5.752567 52.162564 -146.615845 36.933414 -109.197983 -3.085721 2.641371 3.244275 7.125000 0.000000 0.000000 
16.567715 17.560156 -21.510821 -1.097144 -9.670787 10.978688 3.309009 -3.708458 -21.263882 1.806754 11.515445 32.352578 2.586459 -0.508493 5.953394 4.674100 -13.007100 -39.395200 -2.206376 9.945187 -28.023181 -5.983244 -16.353297 47.312818 -0.765605 -1.665090 3.947071 -1.269800 7.142200 -20.137300 1.009746 -0.015280 -2.378556 -3.710798 0.100187 -1.692546 5.956936 6.998524 14.210894 -7.775800 5.358200 3.467300 -68.007555 4.034244 19.584084 148.662802 -39.190386 -111.892672 0.968008 -1.144113 -40.335874 -7.125000 0.000000 0.000000 72.521608 5.795607 52.060639 -146.574203 36.976161 -109.184771 -3.073674 2.675485 3.219324 7.125000 0.000000 0.000000 
16.504014 17.682971 -21.472834 -1.126579 -9.534460 11.069347 3.587299 -3.889955 -20.380656 1.282772 10.795206 30.218071 2.313859 0.378820 7.848996 4.691100 -13.027200 -39.470400 -1.495712 9.031765 -27.928100 -5.578792 -16.069001 46.195797 -1.129767 -0.809993 4.302851 -1.465400 7.650200 -21.656500 1.001966 0.021383 -2.390202 -3.668019 0.115872 -1.762972 6.000740 7.133460 14.134709 -7.726200 5.398800 3.224900 -67.963285 4.136798 19.468884 148.777185 -39.126086 -111.919516 0.963427 -1.147398 -40.701801 -7.125000 0.000000 0.000000 72.375932 5.759033 51.881987 -146.379132 37.162237 -109.087494 -3.099598 2.693131 3.136188 7.125000 0.000000 0.000000 
16.436684 17.802264 -21.435809 -1.124590 -9.323999 11.178017 3.891544 -4.293418 -19.507395 0.805938 10.089922 28.150665 1.969589 1.428591 9.730172 4.653000 -12.982000 -39.301200 -0.815358 7.993001 -27.881202 -5.161421 -15.761267 45.019411 -1.556932 0.196139 4.807182 -1.681200 8.167900 -23.225300 0.984727 0.039178 -2.408962 -3.802113 0.116172 -1.673276 6.007476 7.089212 14.160998 -7.740600 5.386300 3.231100 -67.777727 4.145835 19.409160 148.811078 -39.125341 -111.899077 0.973055 -1.171810 -41.168644 -7.125000 0.000000 0.000000 72.344021 5.936629 51.664017 -146.183954 37.327355 -108.988533 -3.090854 2.686048 2.873782 7.125000 0.000000 0.000000 
16.364873 17.927000 -21.399957 -1.146001 -9.036717 11.235232 4.230333 -4.811626 -18.628867 0.401308 9.436594 26.245374 1.590763 2.559344 11.585593 4.583000 -12.898200 -38.988500 -0.111513 7.060959 -27.735094 -4.744715 -15.444482 43.881596 -2.216388 1.824291 5.381215 -1.668800 8.139100 -23.137500 0.971226 -0.022296 -2.415345 -4.028469 0.072575 -1.399132 5.992665 6.999000 14.240386 -7.772700 5.362300 3.401900 -67.577852 4.076600 19.265669 148.890254 -39.099557 -111.867413 0.996166 -1.219035 -41.564442 -7.125000 0.000000 0.000000 72.437434 6.106047 51.646212 -146.138661 37.372947 -108.964181 -3.049912 2.673406 2.724945 7.125000 0.000000 0.000000 
16.289435 18.043519 -21.369333 -1.163758 -8.843049 11.306421 4.559732 -5.307159 -17.841804 0.068604 8.842474 24.516891 1.201816 3.732718 13.499522 4.570800 -12.883500 -38.933800 0.603680 6.282421 -27.626354 -4.361973 -15.151446 42.833297 -2.777129 3.218120 5.756748 -1.708400 8.230300 -23.415700 0.964684 -0.095986 -2.426409 -4.086575 0.025866 -1.284920 6.037256 7.113188 14.220753 -7.710800 5.401200 3.389000 -67.524156 4.155162 19.025970 148.938381 -39.115730 -111.839460 1.005986 -1.241505 -41.834791 -7.125000 0.000000 0.000000 72.512922 5.897610 51.991541 -146.270351 37.287855 -109.020833 -3.035472 2.642062 2.833130 7.125000 0.000000 0.000000 
